<svg xmlns="http://www.w3.org/2000/svg" viewBox="0 0 25.646 24.31">
  <defs>
    <style>
      .cls-1 {
        fill: #1d3c50;
        fill-rule: evenodd;
      }
    </style>
  </defs>
  <path id="Path_737" data-name="Path 737" class="cls-1" d="M23.923,630.848H5.994a.754.754,0,0,0-.472.183.632.632,0,0,0-.183.472v10.328a.754.754,0,0,0,.183.472.632.632,0,0,0,.472.183H23.923a.754.754,0,0,0,.472-.183.632.632,0,0,0,.183-.472V631.5a.628.628,0,0,0-.655-.655Zm-12.634,9.961a.577.577,0,1,1,0-1.153h2.8a.577.577,0,1,1,0,1.153Zm-4.508,0a.577.577,0,1,1,0-1.153h2.8a.577.577,0,1,1,0,1.153Zm13.525,0a.577.577,0,1,1,0-1.153h2.8a.577.577,0,1,1,0,1.153Zm-4.508,0a.577.577,0,1,1,0-1.153h2.8a.577.577,0,1,1,0,1.153ZM2.01,628.908l18.584-4.98-.472-1.756L1.538,627.126l.472,1.782Zm19.843-4.771v.1l1.468,5.478H23.9a1.9,1.9,0,0,1,1.284.524,1.846,1.846,0,0,1,.524,1.284v10.328a1.9,1.9,0,0,1-.524,1.284,1.846,1.846,0,0,1-1.284.524H5.994a1.9,1.9,0,0,1-1.284-.524,1.846,1.846,0,0,1-.524-1.284v-4.351a2.4,2.4,0,0,1-.6-.236,1.879,1.879,0,0,1-.786-1.048L.122,626.261A1.755,1.755,0,0,1,.306,624.9a1.806,1.806,0,0,1,1.1-.839l17.326-4.64a1.8,1.8,0,0,1,1.337.157l.052.026a1.806,1.806,0,0,1,.839,1.1l.157.629v.1l.734,2.7Zm-.944.891,1.258,4.666H5.994a1.9,1.9,0,0,0-1.284.524,1.845,1.845,0,0,0-.524,1.284v4.771h0a.653.653,0,0,1-.288-.393l-1.573-5.871,18.584-4.98Zm-19.659,1-.026-.1a.653.653,0,0,1,.052-.5.67.67,0,0,1,.393-.315l17.326-4.64a.589.589,0,0,1,.472.052h.026a.67.67,0,0,1,.315.393l.026.1L1.249,626.025Zm21.284,7v1.415H19.493v-1.415Zm-3.617-1.153H23.11a.582.582,0,0,1,.577.577v2.569a.582.582,0,0,1-.577.577H18.916a.582.582,0,0,1-.577-.577v-2.569A.565.565,0,0,1,18.916,631.87Z" transform="translate(-0.059 -619.356)"/>
</svg>
