<svg xmlns="http://www.w3.org/2000/svg" viewBox="0 0 22.438 17.116">
  <defs>
    <style>
      .cls-1 {
        fill: #1d3c50;
        fill-rule: evenodd;
      }
    </style>
  </defs>
  <path id="Path_741" data-name="Path 741" class="cls-1" d="M806.133,2.123v-.97c0-.026,0-.026-.026-.052a.091.091,0,0,0-.052-.026h-5.872c-.026,0-.026,0-.052.026a.091.091,0,0,0-.026.052v.97Zm-12.451,0h5.347v-.97A1.164,1.164,0,0,1,800.183,0h5.872a1.163,1.163,0,0,1,1.153,1.153v.97h5.347a1.8,1.8,0,0,1,1.782,1.782V15.334a1.784,1.784,0,0,1-1.782,1.782H793.682a1.784,1.784,0,0,1-1.782-1.782V3.906a1.784,1.784,0,0,1,1.782-1.782Zm18.873,1.153H793.682a.638.638,0,0,0-.629.629v7.733h7.785v-.419a.549.549,0,0,1,.524-.55h3.486a.532.532,0,0,1,.524.55v.419h7.785V3.906a.585.585,0,0,0-.6-.629Zm-19.5,9.41v2.621a.638.638,0,0,0,.629.629h18.873a.638.638,0,0,0,.629-.629V12.687H805.4v1.048a.549.549,0,0,1-.524.55h-3.486a.532.532,0,0,1-.524-.55V12.687Zm11.271-.944h-2.412v1.468h2.412Z" transform="translate(-791.9)"/>
</svg>
