<svg xmlns="http://www.w3.org/2000/svg" viewBox="0 0 24.325 16.094">
  <defs>
    <style>
      .cls-1 {
        fill: #1d3c50;
        fill-rule: evenodd;
      }
    </style>
  </defs>
  <path id="Path_746" data-name="Path 746" class="cls-1" d="M692.3,375.255a.666.666,0,0,1-.052.315,1.969,1.969,0,0,1-.551,1h0a2.1,2.1,0,0,1-1.494.629H670.1a2.11,2.11,0,0,1-2.045-1.625.665.665,0,0,1-.052-.315V363.2a2.161,2.161,0,0,1,.577-1.442l.026-.026a2.1,2.1,0,0,1,1.494-.629h20.1a2.1,2.1,0,0,1,1.494.629h0a2.1,2.1,0,0,1,.629,1.494V375.1a.332.332,0,0,1-.026.157Zm-23.172-11.062,6.946,5.242.026.026,3.486,2.621a.9.9,0,0,0,1.153,0l3.486-2.621.026-.026,6.946-5.242v-.97a.952.952,0,0,0-.288-.682h0a.952.952,0,0,0-.681-.288H670.1a.952.952,0,0,0-.682.288l-.026.026a.931.931,0,0,0-.262.655v.97Zm22.044,1.442-5.662,4.273,5.662,4.273v-8.545Zm-6.605,5.007-3.145,2.385a2.074,2.074,0,0,1-1.258.419,2.021,2.021,0,0,1-1.258-.419l-3.145-2.385-6.5,4.9a1.443,1.443,0,0,0,.183.236.952.952,0,0,0,.682.288h20.1a.952.952,0,0,0,.681-.288h0a1.444,1.444,0,0,0,.184-.236l-6.527-4.9Zm-9.777-.734-5.662-4.273v8.545Z" transform="translate(-668 -361.1)"/>
</svg>
