<svg xmlns="http://www.w3.org/2000/svg" viewBox="0 0 20.76 20.708">
  <defs>
    <style>
      .cls-1 {
        fill: #1d3c50;
        fill-rule: evenodd;
      }
    </style>
  </defs>
  <path id="Path_747" data-name="Path 747" class="cls-1" d="M860.533,363.562,856,367l4.535,3.434v-6.868Zm-.052,8.257c-.026.026-.052.079-.079.1l-.026.026a.531.531,0,0,1-.367.157H842.578a.517.517,0,0,1-.367-.157.223.223,0,0,1-.079-.131l5.767-4.351.026-.026,3.067-2.307a.524.524,0,0,1,.629,0l3.067,2.333h.026l5.767,4.351Zm-18.375-1.389L846.641,367l-3.119-2.359c-.026,0-.026-.026-.052-.026l-1.363-1.022v6.841Zm0-8.309,1.153.865V359.21l-.891.891c-.026.026-.052.026-.052.052a.534.534,0,0,0-.157.184.524.524,0,0,0-.052.236v1.546Zm1.153-4.508v-3.3a1.894,1.894,0,0,1,.524-1.284,1.845,1.845,0,0,1,1.284-.524h8.965a.56.56,0,0,1,.446.21l4.718,4.718h0l1.835,1.835a1.481,1.481,0,0,1,.446.55,1.785,1.785,0,0,1,.183.734v11.009a1.679,1.679,0,0,1-.446,1.127l-.026.026a1.683,1.683,0,0,1-1.18.5H842.578a1.7,1.7,0,0,1-1.678-1.678V360.521a1.39,1.39,0,0,1,.183-.734,1.8,1.8,0,0,1,.446-.55l1.73-1.625Zm16.12,1.625v3.775l1.153-.865V360.6a.763.763,0,0,0-.052-.236.352.352,0,0,0-.157-.184l-.079-.079-.865-.865Zm-11.848,3.643h4.9a.577.577,0,0,0,0-1.153h-4.9a.577.577,0,0,0,0,1.153Zm0-2.176h7.549a.577.577,0,0,0,0-1.153h-7.549a.577.577,0,0,0,0,1.153Zm-3.119,3.172v-9.567a.753.753,0,0,1,.183-.472.594.594,0,0,1,.472-.184h8.388v3.381a1.683,1.683,0,0,0,.5,1.206h0a1.683,1.683,0,0,0,1.206.5h3.067v5.138l-3.172,2.411-2.726-2.071a1.626,1.626,0,0,0-1.992,0l-2.726,2.071-3.2-2.411Zm13.316-6.291-3.119-3.119v2.569a.534.534,0,0,0,.157.393h0a.534.534,0,0,0,.393.157Z" transform="translate(-840.9 -352.5)"/>
</svg>
