<svg xmlns="http://www.w3.org/2000/svg" viewBox="0 0 19.556 20.822">
  <defs>
    <style>
      .cls-1 {
        fill: #1d3c50;
        fill-rule: evenodd;
      }
    </style>
  </defs>
  <path id="Path_744" data-name="Path 744" class="cls-1" d="M612.6,1007.6a.571.571,0,0,1-.183,1.127c-.472-.079-.944-.184-1.415-.288a10.848,10.848,0,0,1-1.311-.393,7.914,7.914,0,0,1-1.18-.472,6.617,6.617,0,0,1-1.048-.551,3.925,3.925,0,0,0-1.494-.446,3.315,3.315,0,0,0-1.494.236h0l-.052.026c-.5.157-1.049.315-1.6.472q-.786.236-1.73.472c-.629.157-1.206.315-1.809.446-.5.131-1.18.288-1.861.446a.566.566,0,1,1-.262-1.1c.577-.131,1.153-.288,1.861-.446.629-.157,1.232-.314,1.782-.446.55-.157,1.127-.288,1.7-.446.524-.157,1.048-.288,1.547-.446h.026a4.747,4.747,0,0,1,1.992-.314,5.012,5.012,0,0,1,1.992.6l.026.026a6.069,6.069,0,0,0,.917.472c.341.157.708.288,1.075.419.393.131.813.262,1.232.367.367.052.813.157,1.284.236Zm-1.337,1.913a15.418,15.418,0,0,0-12.792,0,.582.582,0,1,0,.446,1.075,14.424,14.424,0,0,1,11.9,0,.582.582,0,1,0,.446-1.075Zm-2.464,1.468a.571.571,0,1,1-.183,1.127,20.5,20.5,0,0,0-7.444,0,.571.571,0,1,1-.184-1.127,22.4,22.4,0,0,1,3.932-.367,20.186,20.186,0,0,1,3.879.367Zm4.771-13.447a.579.579,0,0,1-.1,1.153c-.6-.052-1.206-.131-1.782-.21s-1.127-.21-1.625-.315c-.5-.131-1-.262-1.468-.419a9.054,9.054,0,0,1-1.258-.524,5.79,5.79,0,0,0-4.928,0c-.393.184-.813.367-1.258.524-.472.157-.944.288-1.468.419a13.737,13.737,0,0,1-1.625.315c-.577.079-1.18.157-1.782.21a.579.579,0,1,1-.1-1.153c.577-.052,1.153-.131,1.7-.21.524-.079,1.022-.183,1.547-.315a10.356,10.356,0,0,0,1.363-.393,7.268,7.268,0,0,0,1.127-.472,6.788,6.788,0,0,1,2.962-.655,6.707,6.707,0,0,1,2.962.655c.341.157.734.315,1.127.472.419.131.865.262,1.363.393s1.022.21,1.546.315c.551.079,1.1.131,1.7.21Zm.5,2.49c-.655-.052-1.311-.131-1.913-.21-.6-.1-1.18-.236-1.73-.367a11.07,11.07,0,0,1-1.494-.524,7.731,7.731,0,0,1-1.232-.629,5.2,5.2,0,0,0-2.8-.813,5.364,5.364,0,0,0-2.8.813,7.732,7.732,0,0,1-1.232.629,12.507,12.507,0,0,1-1.494.524,11.89,11.89,0,0,1-1.73.367,15.263,15.263,0,0,1-1.914.21.565.565,0,0,0,.079,1.127c.682-.052,1.363-.131,2.018-.236.629-.1,1.258-.236,1.861-.393a11.145,11.145,0,0,0,1.651-.577,7.762,7.762,0,0,0,1.389-.734,4.061,4.061,0,0,1,2.2-.629,4.193,4.193,0,0,1,2.2.629,9.909,9.909,0,0,0,1.389.734,15.272,15.272,0,0,0,1.651.577c.6.157,1.206.288,1.861.393s1.337.183,2.018.236a.546.546,0,0,0,.6-.524.669.669,0,0,0-.577-.6Zm.026,2.91a.577.577,0,0,1-.052,1.153,13.845,13.845,0,0,1-2.123-.236,15.361,15.361,0,0,1-1.966-.472,12.594,12.594,0,0,1-1.73-.708,9.787,9.787,0,0,1-1.442-.944,3.071,3.071,0,0,0-1.913-.734,2.927,2.927,0,0,0-1.914.734,7.591,7.591,0,0,1-1.442.944,9.984,9.984,0,0,1-1.73.708,11.951,11.951,0,0,1-1.966.472,13.846,13.846,0,0,1-2.123.236.577.577,0,1,1-.052-1.153,16.084,16.084,0,0,0,1.966-.21,13.029,13.029,0,0,0,1.809-.446h0a9.142,9.142,0,0,0,1.547-.655,10.336,10.336,0,0,0,1.258-.813,4.016,4.016,0,0,1,5.295,0,6.1,6.1,0,0,0,1.258.813,9.143,9.143,0,0,0,1.547.655,13.029,13.029,0,0,0,1.809.446c.629.1,1.284.157,1.966.21Zm-1.651-8.073c-.6-.1-1.206-.184-1.73-.288-.55-.1-1.075-.184-1.6-.288s-1-.21-1.442-.315-.865-.21-1.258-.315h-.026a6.357,6.357,0,0,0-2.228-.288,6.561,6.561,0,0,0-2.254.5h0c-.288.1-.6.236-.917.341-.341.1-.708.21-1.075.288h0c-.419.1-.839.184-1.232.262-.446.079-.917.157-1.389.21a.582.582,0,0,0,.157,1.153,12.73,12.73,0,0,0,1.442-.236c.472-.079.917-.183,1.311-.262.393-.1.786-.21,1.153-.315a9.267,9.267,0,0,0,1.022-.367,5.776,5.776,0,0,1,1.887-.393,5.9,5.9,0,0,1,1.809.21l.052.026c.419.1.865.236,1.337.341s.97.21,1.494.314c.5.1,1.049.21,1.625.288.577.1,1.153.183,1.756.288a.566.566,0,0,0,.655-.472.735.735,0,0,0-.55-.681Zm-1.992-2.385a.58.58,0,0,1-.367,1.1,16.28,16.28,0,0,0-5.242-1.127h0a16.418,16.418,0,0,0-5.242,1.127.58.58,0,0,1-.367-1.1,17.455,17.455,0,0,1,5.609-1.18h0a16.146,16.146,0,0,1,5.609,1.18Zm2.936,13a12.229,12.229,0,0,1-1.678-.21,10.361,10.361,0,0,1-1.547-.419,7.716,7.716,0,0,1-1.337-.6,6.33,6.33,0,0,1-1.1-.76H607.7a3.784,3.784,0,0,0-2.254-.865,3.568,3.568,0,0,0-2.254.734,10.91,10.91,0,0,1-1.337.734,12.093,12.093,0,0,1-1.625.6,17.51,17.51,0,0,1-1.861.472,18.676,18.676,0,0,1-2.018.288.579.579,0,0,0,.1,1.153q1.1-.118,2.123-.315a16.605,16.605,0,0,0,1.966-.5,15.308,15.308,0,0,0,1.756-.655,10.7,10.7,0,0,0,1.52-.839l.052-.026a2.559,2.559,0,0,1,1.547-.524,2.789,2.789,0,0,1,1.573.629,7.471,7.471,0,0,0,1.284.891,9.934,9.934,0,0,0,1.52.681c.55.184,1.127.341,1.7.472.6.1,1.232.183,1.835.236a.582.582,0,0,0,.6-.55A.608.608,0,0,0,613.391,1005.477Z" transform="translate(-595.093 -991.295)"/>
</svg>
