<svg xmlns="http://www.w3.org/2000/svg" viewBox="0 0 21.625 21.281">
  <defs>
    <style>
      .cls-1 {
        fill: #1d3c50;
        fill-rule: evenodd;
      }
    </style>
  </defs>
  <path id="Path_738" data-name="Path 738" class="cls-1" d="M1152.477,1204.793a.577.577,0,0,1,0-1.153h1.6v-8.231h-1.6a.582.582,0,0,1-.577-.577V1193.6a.56.56,0,0,1,.21-.446l10.144-9.489a.577.577,0,0,1,.813.026l10.249,9.489a.522.522,0,0,1,.183.419h0v1.232a.582.582,0,0,1-.577.577h-1.573v8.231h1.6a.577.577,0,0,1,0,1.153h-20.472Zm6.632-1.153V1195.3a.582.582,0,0,1,.577-.577h6.055a.582.582,0,0,1,.577.577v8.335h3.906v-8.807a.582.582,0,0,1,.577-.577h1.573v-.393l-9.7-8.991-9.594,8.964v.419h1.6a.582.582,0,0,1,.577.577v8.807Zm1.153,0h4.9v-7.759h-4.9Z" transform="translate(-1151.9 -1183.512)"/>
</svg>
