<svg xmlns="http://www.w3.org/2000/svg" viewBox="0 0 18.905 18.905">
  <defs>
    <style>
      .cls-1 {
        fill: #1c3c50;
        fill-rule: evenodd;
      }
    </style>
  </defs>
  <path id="Path_760" data-name="Path 760" class="cls-1" d="M7.54,9.835a.47.47,0,1,1-.546-.765c.437-.3.847-.6,1.2-.82a11.332,11.332,0,0,1,1.038-.628h0A.847.847,0,0,1,9.7,7.485a.6.6,0,0,1,.464.191h0a.577.577,0,0,1,.164.437,3.569,3.569,0,0,1-.082.628c-.055.246-.137.574-.246.929l-.6,2.1c-.082.273-.137.519-.191.71.137-.082.328-.219.519-.328.355-.219.738-.492,1.147-.792a.47.47,0,0,1,.546.765c-.437.3-.847.6-1.2.82-.464.3-.847.546-1.011.628l-.027.027a.847.847,0,0,1-.464.137.6.6,0,0,1-.464-.191h0a.62.62,0,0,1-.164-.437,3.569,3.569,0,0,1,.082-.628c.055-.246.137-.574.246-.929l.6-2.1c.082-.273.137-.519.191-.71-.137.082-.328.219-.519.328-.328.191-.738.464-1.147.765Zm2.541-4.917a.7.7,0,0,1,.519.219.746.746,0,0,1,.219.519.7.7,0,0,1-.219.519.746.746,0,0,1-.519.219.7.7,0,0,1-.519-.219.746.746,0,0,1-.219-.519.746.746,0,0,1,.738-.738ZM9.452,15.845a5.95,5.95,0,0,0,2.431-.492A6.609,6.609,0,0,0,13.96,13.96a6.313,6.313,0,0,0,1.393-2.076,6.545,6.545,0,0,0,.492-2.431,5.95,5.95,0,0,0-.492-2.431A6.609,6.609,0,0,0,13.96,4.945a6.313,6.313,0,0,0-2.076-1.393A6.545,6.545,0,0,0,9.452,3.06a6.044,6.044,0,0,0-2.431.492A6.609,6.609,0,0,0,4.945,4.945,6.313,6.313,0,0,0,3.551,7.021,6.545,6.545,0,0,0,3.06,9.452a5.95,5.95,0,0,0,.492,2.431A6.609,6.609,0,0,0,4.945,13.96a6.313,6.313,0,0,0,2.076,1.393,6.658,6.658,0,0,0,2.431.492Zm2.814.382a7.868,7.868,0,0,0,2.377-1.584,6.977,6.977,0,0,0,1.584-2.377,7.342,7.342,0,0,0,.546-2.787,7.239,7.239,0,0,0-.546-2.787,7.868,7.868,0,0,0-1.584-2.377,6.977,6.977,0,0,0-2.377-1.584A7.342,7.342,0,0,0,9.48,2.186a7.239,7.239,0,0,0-2.787.546A7.868,7.868,0,0,0,4.316,4.316,6.977,6.977,0,0,0,2.732,6.693,7.342,7.342,0,0,0,2.186,9.48a7.239,7.239,0,0,0,.546,2.787,7.868,7.868,0,0,0,1.584,2.377,6.977,6.977,0,0,0,2.377,1.584,7.379,7.379,0,0,0,5.573,0ZM9.452.956a8.535,8.535,0,1,0,5.983,2.513A8.445,8.445,0,0,0,9.452.956ZM0,9.452a9.5,9.5,0,0,0,2.759,6.693A9.39,9.39,0,0,0,9.452,18.9a9.5,9.5,0,0,0,6.693-2.759A9.39,9.39,0,0,0,18.9,9.452a9.452,9.452,0,0,0-18.9,0Z"/>
</svg>
