<svg xmlns="http://www.w3.org/2000/svg" viewBox="0 0 16.033 16.047">
  <defs>
    <style>
      .cls-1 {
        fill: #1d3c50;
        fill-rule: evenodd;
      }
    </style>
  </defs>
  <path id="Path_756" data-name="Path 756" class="cls-1" d="M12.541,5.485a1.135,1.135,0,0,0,.295-.449,1.383,1.383,0,0,0,.1-.533h0a1.4,1.4,0,0,0-.112-.533,1.554,1.554,0,0,0-.295-.449l-.014-.014a1.443,1.443,0,0,0-.435-.281,1.4,1.4,0,0,0-.533-.112,1.453,1.453,0,0,0-.547.1h0a1.554,1.554,0,0,0-.449.295l-1.291,1.3c.1.056.2.112.309.168a4.3,4.3,0,0,1,.856.673A4.443,4.443,0,0,1,11.25,6.8c.519-.547,1.291-1.319,1.291-1.319ZM7.449,7.449a1.114,1.114,0,0,0,.084.309,1.386,1.386,0,0,0,.295.449h0a1.191,1.191,0,0,0,.449.295,1.213,1.213,0,0,0,.323.084,1.114,1.114,0,0,0-.084-.309,1.386,1.386,0,0,0-.295-.449h0a1.191,1.191,0,0,0-.449-.295,1.37,1.37,0,0,0-.323-.084Zm-.659,3.787c-.1-.056-.2-.112-.309-.168a4.3,4.3,0,0,1-.856-.673A4.443,4.443,0,0,1,4.8,9.244l-1.3,1.3A1.243,1.243,0,0,0,3.2,11a1.383,1.383,0,0,0-.1.533h0a1.4,1.4,0,0,0,.112.533,1.554,1.554,0,0,0,.295.449l.014.014a1.443,1.443,0,0,0,.435.281,1.4,1.4,0,0,0,.533.112,1.525,1.525,0,0,0,.547-.112h0a1.554,1.554,0,0,0,.449-.295l1.3-1.277ZM4.32,7.224a3.788,3.788,0,0,0,.056.687,1.966,1.966,0,0,0,.084.393l-1.6,1.613h0a2.242,2.242,0,0,0-.5.757,2.442,2.442,0,0,0-.182.9h0a2.358,2.358,0,0,0,.168.884,2.242,2.242,0,0,0,.5.757l.028.028a2.264,2.264,0,0,0,.729.477,2.411,2.411,0,0,0,.884.168,2.358,2.358,0,0,0,.884-.168h0a2.242,2.242,0,0,0,.757-.5l2.735-2.735a2.242,2.242,0,0,0,.5-.757l.014-.042a2.253,2.253,0,0,0,.154-.856,2.169,2.169,0,0,0-.182-.884,2.242,2.242,0,0,0-.5-.757h0a2.242,2.242,0,0,0-.757-.5,2.265,2.265,0,0,0-.5-.14,1.17,1.17,0,0,1,.224-.295l.028-.028.7-.7a2.6,2.6,0,0,1,.519.267,3.408,3.408,0,0,1,.673.533,3.46,3.46,0,0,1,.772,1.15,2.045,2.045,0,0,1,.1.267l.014.028a3.282,3.282,0,0,1,.126.533,3.65,3.65,0,0,1-.224,1.922,3.46,3.46,0,0,1-.772,1.15h0L7.028,14.084l-.014.028A3.511,3.511,0,0,1,4.5,15.136h0a3.58,3.58,0,0,1-1.375-.267,3.581,3.581,0,0,1-1.922-1.922A3.53,3.53,0,0,1,.94,11.573h0A3.58,3.58,0,0,1,1.206,10.2a3.46,3.46,0,0,1,.772-1.15l.028-.028L4.377,6.649a2.581,2.581,0,0,0-.056.575Zm.617-2.272a4.308,4.308,0,0,1,.7-.9h0L8.374,1.319,8.4,1.291A4.427,4.427,0,0,1,11.545,0h0A4.554,4.554,0,0,1,13.27.337,4.5,4.5,0,0,1,15.7,2.777,4.554,4.554,0,0,1,16.033,4.5h0A4.554,4.554,0,0,1,15.7,6.228a4.728,4.728,0,0,1-.968,1.459l-.028.028-2.707,2.693c-.154.154-.309.281-.477.421-.14.1-.281.2-.421.281a4.308,4.308,0,0,1-.7.9h0L7.673,14.729l-.028.028a4.564,4.564,0,0,1-1.431.954,4.554,4.554,0,0,1-1.725.337h0a4.554,4.554,0,0,1-1.725-.337A4.728,4.728,0,0,1,1.3,14.743a4.148,4.148,0,0,1-.968-1.459A4.661,4.661,0,0,1,0,11.559H0A4.554,4.554,0,0,1,.337,9.833,4.728,4.728,0,0,1,1.3,8.374l.028-.028L4.04,5.639a4.307,4.307,0,0,1,.477-.407c.14-.1.281-.2.421-.281Zm6.789,3.872a3.788,3.788,0,0,0-.056-.687,1.966,1.966,0,0,0-.084-.393l1.6-1.6h0a2.242,2.242,0,0,0,.5-.757,2.442,2.442,0,0,0,.182-.9h0a2.358,2.358,0,0,0-.168-.884,2.242,2.242,0,0,0-.5-.757l-.028-.028a2.264,2.264,0,0,0-.729-.477,2.76,2.76,0,0,0-.884-.182,2.485,2.485,0,0,0-.9.168h0a2.242,2.242,0,0,0-.757.5L7.168,5.583a2.242,2.242,0,0,0-.5.757l-.014.042a2.253,2.253,0,0,0-.154.856,2.169,2.169,0,0,0,.182.884,2.242,2.242,0,0,0,.5.757h0a2.242,2.242,0,0,0,.757.5,2.265,2.265,0,0,0,.5.14,1.17,1.17,0,0,1-.224.295l-.028.028-.7.7a2.6,2.6,0,0,1-.519-.267A3.408,3.408,0,0,1,6.3,9.749,3.46,3.46,0,0,1,5.527,8.6a2.045,2.045,0,0,1-.1-.267V8.3A3.281,3.281,0,0,1,5.3,7.771a3.65,3.65,0,0,1,.224-1.922A3.46,3.46,0,0,1,6.3,4.7h0L9.02,1.978l.014-.028A3.511,3.511,0,0,1,11.545.926h0a3.58,3.58,0,0,1,1.375.267,3.581,3.581,0,0,1,1.922,1.922,3.53,3.53,0,0,1,.267,1.375h0a3.58,3.58,0,0,1-.267,1.375,3.46,3.46,0,0,1-.772,1.15l-.028.028L11.685,9.412A4.161,4.161,0,0,0,11.727,8.823Z"/>
</svg>
