<svg xmlns="http://www.w3.org/2000/svg" viewBox="0 0 19.004 22.123">
  <defs>
    <style>
      .cls-1 {
        fill: #1d3c50;
        fill-rule: evenodd;
      }
    </style>
  </defs>
  <path id="Path_749" data-name="Path 749" class="cls-1" d="M537.554,1183.123H522.771a2.058,2.058,0,0,1-2.071-2.071v-8.781a2.08,2.08,0,0,1,.6-1.468,2.056,2.056,0,0,1,1.075-.577v-1.415a7.607,7.607,0,0,1,.6-2.988,7.887,7.887,0,0,1,1.7-2.543,7.745,7.745,0,0,1,2.543-1.7,7.984,7.984,0,0,1,2.988-.577,7.606,7.606,0,0,1,2.988.6,7.884,7.884,0,0,1,2.543,1.7,7.742,7.742,0,0,1,1.7,2.542,7.5,7.5,0,0,1,.577,2.988v1.389a2.056,2.056,0,0,1,1.075.577,2.08,2.08,0,0,1,.6,1.468v8.781a2.08,2.08,0,0,1-.6,1.468,2.547,2.547,0,0,1-1.547.6Zm-12.765-12.949v-1.363a5.373,5.373,0,1,1,10.747,0v1.363h1.284v-1.363a6.865,6.865,0,0,0-.5-2.543,7.157,7.157,0,0,0-1.442-2.176,6.736,6.736,0,0,0-2.149-1.442,6.739,6.739,0,0,0-5.085,0,7.157,7.157,0,0,0-2.176,1.442,6.738,6.738,0,0,0-1.442,2.149,6.865,6.865,0,0,0-.5,2.542v1.363h1.258Zm9.567,0v-1.363a4.243,4.243,0,0,0-1.232-2.988,4.2,4.2,0,0,0-2.988-1.232,4.243,4.243,0,0,0-2.988,1.232,4.2,4.2,0,0,0-1.232,2.988v1.363Zm-4.22,2.385a2.4,2.4,0,0,0-1.7.708,2.353,2.353,0,0,0-.708,1.7,2.616,2.616,0,0,0,.262,1.1,2.413,2.413,0,0,0,.5.655v2.411h0a1.342,1.342,0,0,0,1.337,1.337h.6a1.344,1.344,0,0,0,.891-.341l.052-.026a1.348,1.348,0,0,0,.393-.944v-2.411a2.41,2.41,0,0,0,.5-.655,2.522,2.522,0,0,0,.262-1.1,2.4,2.4,0,0,0-.708-1.7,2.18,2.18,0,0,0-1.678-.734Zm.891,1.52a1.2,1.2,0,0,0-.891-.367,1.248,1.248,0,0,0-.891.367,1.2,1.2,0,0,0-.367.891,1.429,1.429,0,0,0,.131.577,1.082,1.082,0,0,0,.393.446.529.529,0,0,1,.236.472v2.7h0a.179.179,0,0,0,.183.183h.6a.136.136,0,0,0,.1-.052l.026-.026a.2.2,0,0,0,.052-.131v-2.674a.645.645,0,0,1,.236-.5,1.306,1.306,0,0,0,.393-.446,1.428,1.428,0,0,0,.131-.577,1.041,1.041,0,0,0-.341-.865Zm-8.283,7.89h14.81a.9.9,0,0,0,.917-.917v-8.781a.9.9,0,0,0-.917-.917h-14.81a.9.9,0,0,0-.917.917v8.781a.931.931,0,0,0,.262.655A1.034,1.034,0,0,0,522.745,1181.97Z" transform="translate(-520.7 -1161)"/>
</svg>
