<svg xmlns="http://www.w3.org/2000/svg" viewBox="0 0 17.513 21.52">
  <defs>
    <style>
      .cls-1 {
        fill: #1d3c50;
        fill-rule: evenodd;
      }
    </style>
  </defs>
  <path id="Path_736" data-name="Path 736" class="cls-1" d="M164.972,1167.393a1.845,1.845,0,0,0,1.284-.524l.026-.026a1.66,1.66,0,0,0,.419-.682h-3.486a1.554,1.554,0,0,0,.446.708,1.96,1.96,0,0,0,1.311.524Zm-5.19-9.8a11.345,11.345,0,0,1-1.678,6.684l-.367.734h14.5l-.367-.734a11.26,11.26,0,0,1-1.678-6.684,5.253,5.253,0,0,0-3.067-5.164,5.41,5.41,0,0,0-2.123-.446,5.314,5.314,0,0,0-2.123.446,5.233,5.233,0,0,0-3.093,5.164Zm-2.7,6.16a10.44,10.44,0,0,0,1.547-6.16,6.393,6.393,0,0,1,3.748-6.212,7.87,7.87,0,0,1,.839-.288v-2.831c0-.629.5-1.022,1.153-1.18a2.543,2.543,0,0,1,.6-.079,2.236,2.236,0,0,1,.6.079c.655.157,1.153.524,1.153,1.18v2.831c.288.079.55.183.839.288a6.355,6.355,0,0,1,3.748,6.212,10.44,10.44,0,0,0,1.547,6.16c.21.419.472.891.76,1.52a.528.528,0,0,1,.079.288.582.582,0,0,1-.577.577h-5.269a2.853,2.853,0,0,1-.786,1.494l-.026.026a2.931,2.931,0,0,1-2.1.865,3,3,0,0,1-2.1-.865h0a2.884,2.884,0,0,1-.813-1.52h-5.269a.93.93,0,0,1-.262-.052.565.565,0,0,1-.262-.76c.341-.655.6-1.127.839-1.573Zm7.287-12.9a4.839,4.839,0,0,1,.6-.026,4.437,4.437,0,0,1,.6.026v-2.621s-.1-.026-.262-.052a2.579,2.579,0,0,0-.734,0l-.262.052v2.621Z" transform="translate(-156.187 -1147)"/>
</svg>
