<svg xmlns="http://www.w3.org/2000/svg" viewBox="0 0 22.875 22.875">
  <defs>
    <style>
      .cls-1 {
        fill: #1d3c50;
        fill-rule: evenodd;
      }
    </style>
  </defs>
  <path id="Path_752" data-name="Path 752" class="cls-1" d="M294,1327.487a10.305,10.305,0,0,0-2.49-1.416,4.1,4.1,0,0,0-2.6.5,8.2,8.2,0,0,0-2.412,1.914,2.346,2.346,0,0,1,.393.5,2.651,2.651,0,0,1,.367,1.363,14.064,14.064,0,0,1,2.726,1.258,12.866,12.866,0,0,1,2.438,1.756,2.328,2.328,0,0,1,1.363-.367,3.222,3.222,0,0,1,.5.052,8.448,8.448,0,0,0,.786-2.988,3.351,3.351,0,0,0-1.075-2.569Zm-10.092,16.068a2.521,2.521,0,0,1-1.547-1.127,2.269,2.269,0,0,1-.262-.629,8.551,8.551,0,0,1-3.512-1.442,10.406,10.406,0,0,0,2.307,2.962,10.287,10.287,0,0,0,6.343,2.595,7.913,7.913,0,0,1-2.49-2.307,1.843,1.843,0,0,1-.839-.052Zm-1.861-2.91a7.142,7.142,0,0,1-2.857-1.258,3.991,3.991,0,0,1-1.651-2.385c-.026-.262-.052-.5-.079-.76a10.536,10.536,0,0,1,.629-4.22,3.612,3.612,0,0,1,1.861-1.468,5.091,5.091,0,0,1,2.359-.236,2.351,2.351,0,0,0,.367,1.258c.079.1.157.236.236.341a10.774,10.774,0,0,0-.813,3.7,12.468,12.468,0,0,0,.5,3.932,2.1,2.1,0,0,0-.524,1.048.081.081,0,0,1-.026.052Zm1.547-1.809a11.918,11.918,0,0,1-.367-3.172,9.7,9.7,0,0,1,.629-3.067,1.3,1.3,0,0,0,.341.1,2.487,2.487,0,0,0,1.887-.288,2.569,2.569,0,0,0,.891-.944,12.861,12.861,0,0,1,2.464,1.127h0a13.373,13.373,0,0,1,2.2,1.573,2.42,2.42,0,0,0-.367,1.258,2.465,2.465,0,0,0,.682,1.782,2.351,2.351,0,0,0,.262.236,10.267,10.267,0,0,1-2.333,2.071,10.868,10.868,0,0,1-2.936,1.284,2.177,2.177,0,0,0-.341-.891,2.452,2.452,0,0,0-1.547-1.127,2.024,2.024,0,0,0-1.468.052Zm3.25,3.119a12.062,12.062,0,0,0,3.643-1.52,11.226,11.226,0,0,0,2.8-2.542,2.044,2.044,0,0,0,.419.052,2.671,2.671,0,0,0,1.337-.341,5.114,5.114,0,0,1,1.127,1.94,3.212,3.212,0,0,1-.079,2.1,10.559,10.559,0,0,1-.682.839,10.231,10.231,0,0,1-4.849,3.067,4.837,4.837,0,0,1-2.726-.6,6.683,6.683,0,0,1-1.966-1.73,2.457,2.457,0,0,0,.97-1.258Zm-3.486-.1a1.36,1.36,0,0,1-.184-.577h0v-.052a1.983,1.983,0,0,1,.026-.393,1.217,1.217,0,0,1,.419-.682l.026-.026c.052-.026.1-.079.157-.1a1.366,1.366,0,0,1,1.022-.157,1.334,1.334,0,0,1,.839.6,1.392,1.392,0,0,1,.183.917h0a.1.1,0,0,1-.026.079,1.334,1.334,0,0,1-.6.839,1.6,1.6,0,0,1-.315.131h-.026a1.493,1.493,0,0,1-.682,0,1.113,1.113,0,0,1-.839-.577Zm5.347-16.435-.315.157a9.269,9.269,0,0,0-2.883,2.333c-.052-.026-.1-.026-.131-.052a2.486,2.486,0,0,0-1.887.288,2.536,2.536,0,0,0-.944,1.022,6.385,6.385,0,0,0-2.988.288l-.079.026c.184-.236.367-.472.55-.682a10.262,10.262,0,0,1,7.077-3.434,10.738,10.738,0,0,1,1.6.052Zm-4.8,5.872.052.052a1.46,1.46,0,0,0,.5.236,1.366,1.366,0,0,0,1.022-.157,1.32,1.32,0,0,0,.6-.786v-.079a1.3,1.3,0,0,0-.157-1,1.432,1.432,0,0,0-.5-.472l-.026-.026a1.476,1.476,0,0,0-.315-.1,1.366,1.366,0,0,0-1.022.157,1.351,1.351,0,0,0-.6.813v.026a1.3,1.3,0,0,0,.157,1,1.957,1.957,0,0,0,.288.341Zm11.428,2.228a.8.8,0,0,1,.21.21,2.426,2.426,0,0,1,.681,1.782,2.311,2.311,0,0,1-.393,1.284,6.233,6.233,0,0,1,1.415,2.438c.026.052.026.1.052.157a10.363,10.363,0,0,0-1.075-9.541v.21a9.145,9.145,0,0,1-.891,3.46Zm-2.071,3.172a.026.026,0,0,1,.026.026,1.223,1.223,0,0,0,.446.079,1.407,1.407,0,0,0,.97-.367,1.359,1.359,0,0,0,.419-.943,1.3,1.3,0,0,0-.367-.944,1.36,1.36,0,0,0-.944-.419,1.407,1.407,0,0,0-.97.367h0a1.272,1.272,0,0,0-.393.917,1.3,1.3,0,0,0,.367.944.719.719,0,0,0,.446.341Zm3.827,5.557a.628.628,0,0,1-.157.21l-.629.786a11.695,11.695,0,1,1,.813-1.048Z" transform="translate(-276.315 -1324.215)"/>
</svg>
