<svg xmlns="http://www.w3.org/2000/svg" viewBox="0 0 20.018 22.877">
  <defs>
    <style>
      .cls-1 {
        fill: #1d3c50;
        fill-rule: evenodd;
      }
    </style>
  </defs>
  <path id="Path_751" data-name="Path 751" class="cls-1" d="M274.163,413.8l-3.093,3.932,2.464,1.966a2.018,2.018,0,0,0,1.468.419,1.922,1.922,0,0,0,1.337-.734,56.936,56.936,0,0,0,9.069-15.727,2.022,2.022,0,0,0-.052-1.52,1.966,1.966,0,0,0-1.1-1.048l-2.936-1.153-1.861,4.64,1.651.655a.584.584,0,0,1,.341.734l-.026.052a49.1,49.1,0,0,1-2.333,4.509h0c-.839,1.468-1.782,2.91-2.726,4.273a.584.584,0,0,1-.813.131l-1.389-1.127Zm.944-15.387a.559.559,0,0,1,.708.367.587.587,0,0,1-.367.734,10.731,10.731,0,0,0-3.67,2.018,11.4,11.4,0,0,0-2.647,3.224,10.831,10.831,0,0,0-1.258,4.01,11.442,11.442,0,0,0,.341,4.22.572.572,0,1,1-1.1.315,12.542,12.542,0,0,1-.393-4.64,11.956,11.956,0,0,1,1.389-4.43,12.144,12.144,0,0,1,2.91-3.565,11.857,11.857,0,0,1,4.089-2.254Zm.577,3.381a.572.572,0,0,1,.393,1.075,7.636,7.636,0,0,0-3.984,3.486,8.117,8.117,0,0,0-.865,2.621,7.087,7.087,0,0,0,.157,2.778.566.566,0,1,1-1.1.262,8.6,8.6,0,0,1-.157-3.172,8.464,8.464,0,0,1,.97-3.014,8.285,8.285,0,0,1,1.913-2.411,9.148,9.148,0,0,1,2.674-1.625Zm-5.872,15.649,3.8-4.823a.579.579,0,0,1,.813-.079l1.363,1.075c.813-1.18,1.6-2.412,2.333-3.67s1.415-2.569,2.018-3.853l-1.625-.629a.55.55,0,0,1-.315-.734l2.28-5.714a.584.584,0,0,1,.734-.341l3.46,1.337a3.066,3.066,0,0,1,1.73,1.651,3.319,3.319,0,0,1,.079,2.412,59.817,59.817,0,0,1-3.984,8.388,57.4,57.4,0,0,1-5.269,7.654,3.18,3.18,0,0,1-4.43.446l-2.883-2.333A.549.549,0,0,1,269.812,417.446Z" transform="translate(-266.655 -398.386)"/>
</svg>
