<svg xmlns="http://www.w3.org/2000/svg" viewBox="0 0 18.82 20.734">
  <defs>
    <style>
      .cls-1 {
        fill: #1d3c50;
        fill-rule: evenodd;
      }
    </style>
  </defs>
  <path id="Path_742" data-name="Path 742" class="cls-1" d="M255.593,51.928a4.9,4.9,0,0,1,1.284.891,4.515,4.515,0,0,1,1.337,3.224.582.582,0,0,1-.577.577H249.67a.582.582,0,0,1-.577-.577,4.47,4.47,0,0,1,1.337-3.224,4.346,4.346,0,0,1,1.284-.891,1.212,1.212,0,0,1-.183-.183,3.041,3.041,0,1,1,4.3,0h0c-.1.079-.157.131-.236.183Zm-8.571,6.37a.577.577,0,0,1,0,1.153H245.58v1.022a.716.716,0,0,0,.21.5h0a.716.716,0,0,0,.5.21h13.971a.716.716,0,0,0,.708-.708V43.461a.716.716,0,0,0-.708-.708H246.288a.716.716,0,0,0-.708.708v1.075h1.442a.577.577,0,0,1,0,1.153H245.58V58.3Zm-2.6,1.153v1.022a1.866,1.866,0,0,0,.55,1.311h0a1.82,1.82,0,0,0,1.311.55h13.971a1.866,1.866,0,0,0,1.311-.55,1.82,1.82,0,0,0,.55-1.311V43.461a1.866,1.866,0,0,0-.55-1.311h0a1.82,1.82,0,0,0-1.311-.55H246.288a1.866,1.866,0,0,0-1.311.55,1.82,1.82,0,0,0-.55,1.311v1.075h-.55a.577.577,0,0,0,0,1.153h.55V58.3h-.55a.577.577,0,0,0,0,1.153Zm10.537-11.166a1.887,1.887,0,1,0,0,2.674h0a1.9,1.9,0,0,0,0-2.674Zm1.1,5.373a3.366,3.366,0,0,0-2.412-1,3.429,3.429,0,0,0-2.412,1,3.268,3.268,0,0,0-.944,1.835h6.737A3.768,3.768,0,0,0,256.065,53.658Z" transform="translate(-243.3 -41.6)"/>
</svg>
