<svg xmlns="http://www.w3.org/2000/svg" viewBox="0 0 21.311 21.34">
  <defs>
    <style>
      .cls-1 {
        fill: #1d3c50;
        fill-rule: evenodd;
      }
    </style>
  </defs>
  <path id="Path_745" data-name="Path 745" class="cls-1" d="M806.975,569.269a5.315,5.315,0,0,0-1.756-1.18,5.408,5.408,0,0,0-2.071-.419,5.645,5.645,0,0,0-2.1.419,5.747,5.747,0,0,0-1.756,1.18,5.314,5.314,0,0,0-1.18,1.756,5.441,5.441,0,0,0-.419,2.1,5.646,5.646,0,0,0,.419,2.1,5.488,5.488,0,0,0,2.936,2.936,5.442,5.442,0,0,0,2.1.419,5.646,5.646,0,0,0,2.1-.419,5.749,5.749,0,0,0,1.756-1.18,5.315,5.315,0,0,0,1.18-1.756,5.441,5.441,0,0,0,.419-2.1,5.542,5.542,0,0,0-.419-2.1,6.341,6.341,0,0,0-1.206-1.756Zm3.932,8.545,3.853,3.853.026.026a1.873,1.873,0,0,1,.524,1.284,1.848,1.848,0,0,1-.55,1.311h0l-.026.026-.419.419a1.9,1.9,0,0,1-1.232.6,1.654,1.654,0,0,1-1.258-.5h0l-3.984-3.984a9.168,9.168,0,0,1-4.744,1.337,8.986,8.986,0,0,1-6.422-2.674A9.078,9.078,0,0,1,794,573.1a8.986,8.986,0,0,1,2.674-6.422,9.109,9.109,0,0,1,15.544,6.422,8.987,8.987,0,0,1-1.311,4.718Zm-2.1,2.411,3.853,3.853h0a.46.46,0,0,0,.367.157.843.843,0,0,0,.5-.262l.419-.419.026-.026h0a.716.716,0,0,0,.21-.5.735.735,0,0,0-.183-.5l-3.748-3.775a9.575,9.575,0,0,1-.708.786,9.033,9.033,0,0,1-.734.682Zm-5.688-15.02a7.876,7.876,0,1,1-5.583,2.307,7.906,7.906,0,0,1,5.583-2.307Zm2.516,1.835a6.963,6.963,0,0,1,2.149,1.415h0a6.264,6.264,0,0,1,1.415,2.149,6.607,6.607,0,0,1,0,5.033,6.963,6.963,0,0,1-1.415,2.149,6.589,6.589,0,0,1-7.182,1.442,6.669,6.669,0,0,1-2.149-1.416,6.265,6.265,0,0,1-1.415-2.149,6.606,6.606,0,0,1,0-5.033,6.964,6.964,0,0,1,1.415-2.149h0a6.267,6.267,0,0,1,2.149-1.415,6.729,6.729,0,0,1,2.516-.5A5.82,5.82,0,0,1,805.638,567.041Z" transform="translate(-794 -564)"/>
</svg>
