<svg xmlns="http://www.w3.org/2000/svg" viewBox="0 0 21.494 21.494">
  <defs>
    <style>
      .cls-1 {
        fill: #1d3c50;
        fill-rule: evenodd;
      }
    </style>
  </defs>
  <path id="Path_739" data-name="Path 739" class="cls-1" d="M160.353,870.509v17.877h0a.614.614,0,0,0,.21.472.656.656,0,0,0,.472.21h17.877a.614.614,0,0,0,.472-.21.656.656,0,0,0,.21-.472V870.509a.614.614,0,0,0-.21-.472.657.657,0,0,0-.472-.21H161.035a.614.614,0,0,0-.472.21.657.657,0,0,0-.21.472Zm16.068,13.158v3.172a.577.577,0,0,1-1.153,0v-3.172h-.917a1.09,1.09,0,0,1-.839-.367,1.213,1.213,0,0,1-.341-.839v-1.415h0a1.09,1.09,0,0,1,.367-.839,1.212,1.212,0,0,1,.839-.341h.917v-7.759a.577.577,0,0,1,1.153,0v7.759h.944a1.166,1.166,0,0,1,.839.341h0a1.213,1.213,0,0,1,.341.839h0v1.415h0a1.09,1.09,0,0,1-.367.839,1.213,1.213,0,0,1-.839.341h-.944Zm-.524-2.674h1.468c.026,0,.026,0,.026.026h0l.026.026h0v1.415h0c0,.026,0,.026-.026.026l-.026.026H174.3c-.026,0-.026,0-.026-.026l-.026-.026v-1.415h0c0-.026,0-.026.026-.026a.091.091,0,0,1,.052-.026H175.9Zm-5.9-4.561h1.494a.026.026,0,0,1,.026.026h0v.026h0V877.9a.026.026,0,0,1-.026.026h-3.041c-.026,0-.026,0-.026-.026l-.026-.026v-1.416h0c0-.026,0-.026.026-.026a.092.092,0,0,1,.052-.026h1.494c0,.026,0,.026.026.026Zm-.629-1.153v-3.2a.577.577,0,0,1,1.153,0v3.2h.97a1.166,1.166,0,0,1,.839.341l.026.052a1.249,1.249,0,0,1,.315.813h0V877.9a1.166,1.166,0,0,1-.341.839l-.052.026a1.249,1.249,0,0,1-.813.315h-.97v7.733a.577.577,0,0,1-1.153,0V879.08h-.917a1.09,1.09,0,0,1-.839-.367,1.213,1.213,0,0,1-.341-.839v-1.415h0a1.09,1.09,0,0,1,.367-.839,1.212,1.212,0,0,1,.839-.341Zm-5.347,7.235h-1.468c-.026,0-.026,0-.026-.026h0l-.026-.026v-1.415c0-.026,0-.026.026-.026h0l.026-.026H165.6c.026,0,.026,0,.026.026l.026.026v1.415h0c0,.026,0,.026-.026.026l-.026.026h-1.573Zm.629,1.153v3.172a.577.577,0,0,1-1.153,0v-3.172h-.944a1.09,1.09,0,0,1-.839-.367h0a1.213,1.213,0,0,1-.341-.839v-1.415a1.166,1.166,0,0,1,.341-.839h0a1.212,1.212,0,0,1,.839-.341h.944v-7.759a.577.577,0,0,1,1.153,0v7.759h.944a1.09,1.09,0,0,1,.839.367,1.213,1.213,0,0,1,.341.839v1.416h0a1.09,1.09,0,0,1-.367.839,1.212,1.212,0,0,1-.839.341Zm-5.452,4.718V870.509a1.845,1.845,0,0,1,.524-1.284,1.781,1.781,0,0,1,1.284-.524h17.877a1.845,1.845,0,0,1,1.284.524,1.781,1.781,0,0,1,.524,1.284v17.877a1.846,1.846,0,0,1-.524,1.284,1.781,1.781,0,0,1-1.284.524H161.009a1.76,1.76,0,0,1-1.284-.55,1.736,1.736,0,0,1-.524-1.258Z" transform="translate(-159.2 -868.7)"/>
</svg>
