<svg xmlns="http://www.w3.org/2000/svg" viewBox="0 0 23.538 23.565">
  <defs>
    <style>
      .cls-1 {
        fill: #1d3c50;
        fill-rule: evenodd;
      }
    </style>
  </defs>
  <path id="Path_743" data-name="Path 743" class="cls-1" d="M289.967,771.062l.865.341h.052l1.835-.944a1.225,1.225,0,0,1,.734-.131,1.3,1.3,0,0,1,.682.341h0l1.913,1.913a1.134,1.134,0,0,1,.341.682,1.059,1.059,0,0,1-.131.734l-.944,1.835v.052l.367.891a.026.026,0,0,0,.026.026h.026l1.966.629a1.055,1.055,0,0,1,.6.446h0a1.15,1.15,0,0,1,.236.708v2.7a1.15,1.15,0,0,1-.236.708h0a1.259,1.259,0,0,1-.6.446l-1.966.629h-.026l-.026.026-.367.865v.052l.944,1.835a1.225,1.225,0,0,1,.131.734,1.134,1.134,0,0,1-.341.682l-1.913,1.913a1.133,1.133,0,0,1-.682.341,1.225,1.225,0,0,1-.734-.131l-1.835-.944h-.052l-.891.367a.026.026,0,0,0-.026.026.026.026,0,0,1-.026.026l-.629,1.966a1.055,1.055,0,0,1-.446.6,1.15,1.15,0,0,1-.708.236h-2.7a1.15,1.15,0,0,1-.708-.236,1.26,1.26,0,0,1-.446-.6l-.629-1.966v-.026l-.026-.026-.891-.367h-.052l-1.835.944a1.225,1.225,0,0,1-.734.131,1.133,1.133,0,0,1-.681-.341l-1.913-1.913-.026-.052a1.429,1.429,0,0,1-.315-.629,1.225,1.225,0,0,1,.131-.734l.944-1.835v-.052l-.367-.891a.026.026,0,0,0-.026-.026.026.026,0,0,1-.026-.026l-1.966-.629a1.055,1.055,0,0,1-.6-.446l-.026-.052a1.168,1.168,0,0,1-.21-.681v-2.7a1.15,1.15,0,0,1,.236-.708h0a1.259,1.259,0,0,1,.6-.446l1.966-.629a.026.026,0,0,0,.026-.026l.026-.026.367-.891v-.052l-.944-1.835a1.225,1.225,0,0,1-.131-.734,1.3,1.3,0,0,1,.341-.682h0l1.913-1.913a1.134,1.134,0,0,1,.682-.341,1.225,1.225,0,0,1,.734.131l1.835.944h.052l.891-.367h0a.026.026,0,0,1,.026-.026c.21-.629.419-1.311.629-1.966a1.055,1.055,0,0,1,.446-.6,1.15,1.15,0,0,1,.708-.236h2.7a1.15,1.15,0,0,1,.708.236,1.259,1.259,0,0,1,.446.6l.629,1.966a.026.026,0,0,0,.026.026l.026.026.026.1Zm-3.2,14.181a5.356,5.356,0,0,0,3.748-1.547,5.247,5.247,0,0,0,1.547-3.748,5.357,5.357,0,0,0-1.547-3.748,5.247,5.247,0,0,0-3.748-1.547,5.357,5.357,0,0,0-3.748,1.547,5.246,5.246,0,0,0-1.547,3.748,5.357,5.357,0,0,0,1.547,3.748,5.2,5.2,0,0,0,3.748,1.547Zm4.561-.734a6.4,6.4,0,0,0,1.887-4.561,6.507,6.507,0,0,0-1.887-4.561,6.351,6.351,0,0,0-4.561-1.887,6.507,6.507,0,0,0-4.561,1.887,6.4,6.4,0,0,0-1.887,4.561,6.506,6.506,0,0,0,1.887,4.561,6.455,6.455,0,0,0,9.122,0Zm-.97-12.031-.891-.367a1.2,1.2,0,0,1-.419-.288,1.535,1.535,0,0,1-.262-.446l-.629-1.966c0-.026,0-.026-.026-.026h-2.8l-.026.026-.629,1.966a.962.962,0,0,1-.262.446,1.526,1.526,0,0,1-.393.288l-.026.026-.891.367a1.174,1.174,0,0,1-.524.1,1.085,1.085,0,0,1-.5-.131l-1.835-.944h-.052a.026.026,0,0,0-.026.026l-1.914,1.914h0l-.026.026v.052l.944,1.835a1.175,1.175,0,0,1,.131.5,1.25,1.25,0,0,1-.1.524l-.367.891a1.69,1.69,0,0,1-.288.419,1.533,1.533,0,0,1-.446.262l-1.966.629c-.026,0-.026,0-.026.026v2.779h0l.026.026,1.966.629a.847.847,0,0,1,.446.262.931.931,0,0,1,.288.419l.367.891a1.174,1.174,0,0,1,.1.524,1.084,1.084,0,0,1-.131.5l-.944,1.835v.079l1.913,1.913.026.026h.052l1.835-.944a1.176,1.176,0,0,1,.5-.131,1.249,1.249,0,0,1,.524.1l.891.367a1.2,1.2,0,0,1,.419.288,1.534,1.534,0,0,1,.262.446l.629,1.966a.026.026,0,0,0,.026.026h2.857l.026-.026.629-1.966a.846.846,0,0,1,.262-.446.931.931,0,0,1,.419-.288l.891-.367a1.173,1.173,0,0,1,.524-.1,1.085,1.085,0,0,1,.5.131l1.835.944h.052a.026.026,0,0,0,.026-.026l1.914-1.913.026-.026V786.5l-.944-1.835a1.175,1.175,0,0,1-.131-.5,1.25,1.25,0,0,1,.1-.524l.367-.891a1.2,1.2,0,0,1,.288-.419,1.533,1.533,0,0,1,.446-.262l1.966-.629c.026,0,.026,0,.026-.026v-2.752h0l-.026-.026-1.966-.629a.846.846,0,0,1-.446-.262.931.931,0,0,1-.288-.419l-.367-.891a1.173,1.173,0,0,1-.1-.524,1.083,1.083,0,0,1,.131-.5l.944-1.835v-.052a.026.026,0,0,0-.026-.026l-1.914-1.913h0l-.026-.026h-.052l-1.835.944a1.176,1.176,0,0,1-.5.131,3.378,3.378,0,0,1-.55-.157Zm-3.591,4.587a2.894,2.894,0,0,0-2.045.839h0a2.833,2.833,0,0,0-.839,2.018,2.894,2.894,0,0,0,.839,2.044,2.88,2.88,0,0,0,4.037.026l.026-.026a2.848,2.848,0,0,0,.839-2.044,2.894,2.894,0,0,0-.839-2.045,3.045,3.045,0,0,0-2.018-.813Zm1.206,1.678a1.682,1.682,0,0,0-1.206-.5,1.639,1.639,0,0,0-1.206.5h0a1.7,1.7,0,0,0-.5,1.232,1.639,1.639,0,0,0,.5,1.206,1.683,1.683,0,0,0,1.206.5,1.775,1.775,0,0,0,1.206-.472l.026-.026a1.682,1.682,0,0,0,.5-1.206A1.834,1.834,0,0,0,287.975,778.742Z" transform="translate(-275 -768.1)"/>
</svg>
