<svg xmlns="http://www.w3.org/2000/svg" viewBox="0 0 17.772 22.857">
  <defs>
    <style>
      .cls-1 {
        fill: #1d3c50;
        fill-rule: evenodd;
      }
    </style>
  </defs>
  <path id="Path_740" data-name="Path 740" class="cls-1" d="M880.445,713.762H864.98v1.232h15.439v-1.232Zm-3.906,4.43a.577.577,0,1,1,1.153,0v12.241a.577.577,0,0,1-1.153,0V718.192Zm-4.43,0a.577.577,0,1,1,1.153,0v12.241a.577.577,0,0,1-1.153,0V718.192Zm-4.4,0a.577.577,0,1,1,1.153,0v12.241a.577.577,0,0,1-1.153,0V718.192Zm2.988-5.583v-1.232a.582.582,0,0,1,.577-.577H874.1a.582.582,0,0,1,.577.577v1.258H881a.582.582,0,0,1,.577.577V715.6a.582.582,0,0,1-.577.577h-.315V731.8a1.866,1.866,0,0,1-.55,1.311,1.82,1.82,0,0,1-1.311.55H866.526a1.866,1.866,0,0,1-1.311-.55h0a1.82,1.82,0,0,1-.55-1.311V716.173h-.288a.582.582,0,0,1-.577-.577v-2.385a.582.582,0,0,1,.577-.577h6.317Zm2.831,0v-.682h-1.678v.682Zm-6.972,19.869h12.294a.716.716,0,0,0,.708-.708V716.147H865.871V731.77a.716.716,0,0,0,.21.5h0A.542.542,0,0,0,866.552,732.477Z" transform="translate(-863.8 -710.8)"/>
</svg>
